<svg width="1200" height="760" viewBox="0 0 1200 760" fill="none" xmlns="http://www.w3.org/2000/svg">
  <rect width="1200" height="760" fill="#F7FAFB"/>
  <path d="M0 0H1200V246L870 180L614 278L322 120L0 234V0Z" fill="#0B4551"/>
  <rect x="108" y="150" width="984" height="470" rx="34" fill="#FEFEFE" stroke="#D4D3D1"/>
  <rect x="148" y="200" width="250" height="32" rx="16" fill="#03252D"/>
  <rect x="148" y="270" width="220" height="250" rx="22" fill="#EDF4F5"/>
  <rect x="408" y="270" width="306" height="250" rx="22" fill="#D9EEF5"/>
  <rect x="754" y="270" width="298" height="250" rx="22" fill="#EDF4F5"/>
  <path d="M448 460C496 370 548 414 596 326C640 248 662 292 690 270" stroke="#0B4551" stroke-width="16" stroke-linecap="round"/>
  <circle cx="886" cy="394" r="62" fill="#72C6E8"/>
  <circle cx="886" cy="394" r="94" stroke="#72C6E8" stroke-opacity=".35" stroke-width="18"/>
</svg>
